<svg width="125" height="142" viewBox="0 0 125 142" fill="none" xmlns="http://www.w3.org/2000/svg">
<path d="M25.6836 30.0078C25.6836 33.8425 28.7922 36.9512 32.627 36.9512C36.4617 36.9512 39.5703 33.8425 39.5703 30.0078V16.4355H84.1523V30.0078C84.1523 33.8425 87.261 36.9512 91.0957 36.9512C94.9304 36.9512 98.0391 33.8425 98.0391 30.0078V16.4355H105.795C116.288 16.4355 124.795 24.9421 124.795 35.4355V122.23C124.795 132.724 116.288 141.23 105.795 141.23H19C8.50659 141.23 0 132.724 0 122.23V35.4355C2.06162e-06 24.9421 8.50659 16.4355 19 16.4355H25.6836V30.0078ZM6.21484 121.086C6.21484 129.37 12.9306 136.086 21.2148 136.086H102.453C110.737 136.086 117.453 129.37 117.453 121.086V56.0098H6.21484V121.086ZM28.7529 30.748C28.7422 30.6918 28.7329 30.6352 28.7246 30.5781L28.7041 30.4111C28.7157 30.5249 28.7319 30.6373 28.7529 30.748ZM87.1729 30.4111C87.1844 30.5249 87.2006 30.6373 87.2217 30.748C87.211 30.6918 87.2017 30.6352 87.1934 30.5781L87.1729 30.4111Z" fill="black"/>
<rect x="14.3203" y="68.1699" width="25.8359" height="23.0762" rx="5" fill="black"/>
<rect x="48.8242" y="68.1699" width="25.8359" height="23.0762" rx="5" fill="black"/>
<rect x="83.3281" y="68.1699" width="25.8359" height="23.0762" rx="5" fill="black"/>
<rect x="14.3203" y="100.283" width="25.8359" height="23.0762" rx="5" fill="black"/>
<rect x="48.8242" y="100.283" width="25.8359" height="23.0762" rx="5" fill="black"/>
<rect x="83.3281" y="100.283" width="25.8359" height="23.0762" rx="5" fill="black"/>
<rect x="28.6836" width="7.88672" height="33.9512" rx="3.94336" fill="black"/>
<rect x="87.1523" width="7.88672" height="33.9512" rx="3.94336" fill="black"/>
</svg>
